<svg xmlns="http://www.w3.org/2000/svg" width="602.4" height="131.7" class="a"><style>.a{version:1;}.b{fill-rule:evenodd;fill:white;}</style><path d="M84.7 22.97C86.76 23.03 86.55 24.48 86.21 24.97 80.12 34.44 65.75 51.09 55.29 69.37 53.56 72.33 52.27 74.51 52.27 77.76 52.27 82.17 55.02 87.38 60.54 89.61 64.18 91.07 66.47 91.11 70.39 91.17 99.52 92.07 111.19 91.28 137.26 90.4 138.76 90.4 140.16 89.38 140.66 88.77 145.7 83.52 148.61 74.07 148.61 65.74 148.61 47.18 135.24 30.46 114.39 22.41L111.04 26.71C129.32 34.26 138.76 49.35 138.76 65.51 138.76 69.14 138.14 72.67 137.03 76.03 136.2 78.37 135.18 79.72 132.22 79.77 110.98 80.22 98.96 80.55 77.66 79.99 74.91 79.94 74.03 78.93 73.58 76.76 73.24 75.47 73.52 74.4 74.41 72.78 85.71 52.77 105.38 29.9 109.25 24.48 109.98 23.47 109.64 21.45 107.12 20.78 99.74 18.6 91.47 17.72 83.09 17.72 45.11 17.87 18.33 39.23 17.72 65.74 19.24 97.55 46.9 113.98 83.09 113.98 105.23 113.98 125.51 106.16 137.37 93.75L126.41 94.19C116.29 103.19 100.07 108 83.3 108 52.73 108 27.84 92.8 27.84 65.51 27.84 42.03 52.73 22.91 83.3 22.91 83.3 22.91 84.7 22.97 84.7 22.97zM335.85 80.44L356.53 66.86 325.23 43.54 325.23 49.25 278.93 49.25C272.89 49.25 267.92 53.55 267.02 59.14L320.69 59.08 320.69 69.26 279.65 69.31C273.17 69.31 267.86 74.24 267.58 80.44L335.85 80.44zM532.47 49.08L579.94 49.08 579.94 39.07 532.21 39.07C514.36 39.07 499.77 52.71 499.04 69.82L556.58 69.76C560.31 69.76 563.33 72.22 563.33 75.19 563.33 78.2 560.31 80.61 556.58 80.61L493.23 80.61 493.23 39.07 474.44 39.07 474.44 80.33 436.71 80.33C431.17 79.43 429.44 75.41 429.44 67.58L429.44 39.07 399.14 39.07 371.9 56.73 348.2 39.07 275.29 39.07C259.13 39.07 245.66 50.19 242.7 65.01L257.34 65.01C251.82 68.76 247.57 74.07 245.22 80.34L198.86 80.33C193.4 79.43 191.6 75.41 191.6 67.58L191.61 39.07 172.87 39.07 172.87 65.68C172.08 83.3 181.64 89.61 192.55 90.62L338.19 90.61 365.03 73.28 388.46 90.84 417.13 90.84 380.63 63.39 410.65 43.94 410.7 65.68C409.93 83.3 420.43 89.61 431.34 90.62L567.64 90.61C577.03 90.61 584.65 83.74 584.65 75.19 584.65 66.68 577.03 59.81 567.64 59.81L520.57 59.81C521.01 53.83 526.16 49.08 532.47 49.08L532.47 49.08z" class="b"/></svg>
